<?xml version="1.0" encoding="UTF-8" standalone="no"?>
<svg
   xmlns:dc="http://purl.org/dc/elements/1.1/"
   xmlns:cc="http://creativecommons.org/ns#"
   xmlns:rdf="http://www.w3.org/1999/02/22-rdf-syntax-ns#"
   xmlns:svg="http://www.w3.org/2000/svg"
   xmlns="http://www.w3.org/2000/svg"
   height="369.32419"
   width="292.38165"
   viewBox="0 -0.5 292.38166 369.32418"
   shape-rendering="crispEdges"
   version="1.1"
   id="svg16">
  <defs
     id="defs20">
    <rect
       id="rect926"
       height="77.394289"
       width="262.49313"
       y="264.5"
       x="14.5" />
    <rect
       id="rect920"
       height="16"
       width="161.75"
       y="214.5"
       x="30.5" />
    <rect
       id="rect845"
       height="23.082762"
       width="30.777016"
       y="34.124142"
       x="230.82761" />
    <rect
       id="rect839"
       height="19.579641"
       width="24.382196"
       y="24.436337"
       x="25.121052" />
    <rect
       x="230.82761"
       y="34.124142"
       width="30.777016"
       height="23.082762"
       id="rect845-5" />
    <rect
       x="230.82761"
       y="34.124142"
       width="30.777016"
       height="23.082762"
       id="rect866" />
    <rect
       x="230.82761"
       y="34.124142"
       width="30.777016"
       height="23.082762"
       id="rect845-0" />
    <rect
       x="230.82761"
       y="34.124142"
       width="30.777016"
       height="23.082762"
       id="rect866-7" />
    <rect
       x="230.82761"
       y="34.124142"
       width="30.777016"
       height="23.082762"
       id="rect845-6" />
    <rect
       x="230.82761"
       y="34.124142"
       width="30.777016"
       height="23.082762"
       id="rect866-3" />
  </defs>
  <metadata
     id="metadata2">Made with Pixels to Svg https://codepen.io/shshaw/pen/XbxvNj<rdf:RDF>
  <cc:Work
     rdf:about="">
    <dc:format>image/svg+xml</dc:format>
    <dc:type
       rdf:resource="http://purl.org/dc/dcmitype/StillImage" />
    <dc:title></dc:title>
  </cc:Work>
</rdf:RDF>
</metadata>
  <g
     id="g855">
    <g
       id="g835"
       transform="matrix(7.6942537,0,0,7.6942537,0,3.3471269)">
      <path
         id="path6"
         style="display:inline;stroke:#000000;stroke-opacity:1"
         d="m 12,0 c 0.333333,0 0.666667,0 1,0 m 12,0 c 0.333333,0 0.666667,0 1,0 M 1,2 c 0.3333333,0 0.6666667,0 1,0 m 12,0 c 0.333333,0 0.666667,0 1,0 M 0,4 C 0.33333333,4 0.66666667,4 1,4 M 3,4 C 3.3333333,4 3.6666667,4 4,4 M 0,7 C 0.33333333,7 0.66666667,7 1,7 M 2,7 C 2.3333333,7 2.6666667,7 3,7 M 2,8 c 0.3333333,0 0.6666667,0 1,0 m 23,12 c 0.333333,0 0.666667,0 1,0 m -1,2 c 0.333333,0 0.666667,0 1,0 m -1,2 c 0.333333,0 0.666667,0 1,0 m 2,0 c 0.333333,0 0.666667,0 1,0 m -2,1 c 0.333333,0 0.666667,0 1,0 m 8,0 c 0.333333,0 0.666667,0 1,0 m -25,1 c 0.333333,0 0.666667,0 1,0 m 3,0 c 0.333333,0 0.666667,0 1,0 m 19,4 c 0.333333,0 0.666667,0 1,0 m -18,3 c 1,0 2,0 3,0 m 3,0 c 0.333333,0 0.666667,0 1,0 m 10,7 c 0.333333,0 0.666667,0 1,0 M 0,41 c 0.33333333,0 0.66666667,0 1,0 m -1,3 c 0.33333333,0 0.66666667,0 1,0 m 35,1 c 0.333333,0 0.666667,0 1,0 m -26,2 c 0.333333,0 0.666667,0 1,0 m 20,0 c 0.333333,0 0.666667,0 1,0 M 2,0 c 3.3333333,0 6.6666667,0 10,0 m 1,0 c 4,0 8,0 12,0 m 1,0 c 3.333333,0 6.666667,0 10,0 M 1,1 c 1,0 2,0 3,0 m 30,0 c 1,0 2,0 3,0 M 0,2 c 0.33333333,0 0.66666667,0 1,0 m 4,0 c 3,0 6,0 9,0 m 1,0 c 3,0 6,0 9,0 m 7,0 c 0.666667,0 1.333333,0 2,0 m 3,0 c 0.666667,0 1.333333,0 2,0 M 0,3 c 0.66666667,0 1.3333333,0 2,0 m 1,0 c 0.6666667,0 1.3333333,0 2,0 m 19,0 c 0.666667,0 1.333333,0 2,0 m 3,0 c 0.666667,0 1.333333,0 2,0 m 2,0 c 0.666667,0 1.333333,0 2,0 m 1,0 c 0.666667,0 1.333333,0 2,0 M 25,4 c 0.333333,0 0.666667,0 1,0 m 3,0 c 0.333333,0 0.666667,0 1,0 m 4,0 c 0.333333,0 0.666667,0 1,0 m 2,0 c 0.333333,0 0.666667,0 1,0 M 0,5 c 0.33333333,0 0.66666667,0 1,0 m 1,0 c 0.3333333,0 0.6666667,0 1,0 m 23,0 c 0.333333,0 0.666667,0 1,0 m 1,0 c 0.333333,0 0.666667,0 1,0 m 6,0 c 0.333333,0 0.666667,0 1,0 m 1,0 c 0.333333,0 0.666667,0 1,0 M 0,6 c 0.33333333,0 0.66666667,0 1,0 m 1,0 c 0.3333333,0 0.6666667,0 1,0 m 23,0 c 0.333333,0 0.666667,0 1,0 m 1,0 c 0.333333,0 0.666667,0 1,0 m 6,0 c 0.333333,0 0.666667,0 1,0 m 1,0 c 0.333333,0 0.666667,0 1,0 M 26,7 c 0.333333,0 0.666667,0 1,0 m 2,0 c 0.333333,0 0.666667,0 1,0 m 4,0 c 0.333333,0 0.666667,0 1,0 m 2,0 c 0.333333,0 0.666667,0 1,0 M 0,8 c 0.33333333,0 0.66666667,0 1,0 m 25,0 c 0.333333,0 0.666667,0 1,0 m 2,0 c 0.666667,0 1.333333,0 2,0 m 2,0 c 0.666667,0 1.333333,0 2,0 m 2,0 c 0.333333,0 0.666667,0 1,0 M 0,9 c 0.33333333,0 0.66666667,0 1,0 m 1,0 c 0.3333333,0 0.6666667,0 1,0 m 23,0 c 0.333333,0 0.666667,0 1,0 m 4,0 c 0.666667,0 1.333333,0 2,0 m 4,0 c 0.333333,0 0.666667,0 1,0 M 0,10 c 0.33333333,0 0.66666667,0 1,0 m 1,0 c 0.3333333,0 0.6666667,0 1,0 m 23,0 c 0.333333,0 0.666667,0 1,0 m 10,0 c 0.333333,0 0.666667,0 1,0 M 0,11 c 0.33333333,0 0.66666667,0 1,0 m 1,0 c 0.3333333,0 0.6666667,0 1,0 m 23,0 c 0.333333,0 0.666667,0 1,0 m 10,0 c 0.333333,0 0.666667,0 1,0 M 0,12 c 0.33333333,0 0.66666667,0 1,0 m 1,0 c 0.3333333,0 0.6666667,0 1,0 m 23,0 c 0.333333,0 0.666667,0 1,0 m 4,0 c 0.666667,0 1.333333,0 2,0 m 4,0 c 0.333333,0 0.666667,0 1,0 M 0,13 c 0.33333333,0 0.66666667,0 1,0 m 1,0 c 0.3333333,0 0.6666667,0 1,0 m 23,0 c 0.333333,0 0.666667,0 1,0 m 2,0 c 0.666667,0 1.333333,0 2,0 m 2,0 c 0.666667,0 1.333333,0 2,0 m 2,0 c 0.333333,0 0.666667,0 1,0 M 0,14 c 0.33333333,0 0.66666667,0 1,0 m 1,0 c 0.3333333,0 0.6666667,0 1,0 m 23,0 c 0.333333,0 0.666667,0 1,0 m 2,0 c 0.333333,0 0.666667,0 1,0 m 4,0 c 0.333333,0 0.666667,0 1,0 m 2,0 c 0.333333,0 0.666667,0 1,0 M 0,15 c 0.33333333,0 0.66666667,0 1,0 m 1,0 c 0.3333333,0 0.6666667,0 1,0 m 23,0 c 0.333333,0 0.666667,0 1,0 m 1,0 c 0.333333,0 0.666667,0 1,0 m 6,0 c 0.333333,0 0.666667,0 1,0 m 1,0 c 0.333333,0 0.666667,0 1,0 M 0,16 c 0.33333333,0 0.66666667,0 1,0 m 1,0 c 0.3333333,0 0.6666667,0 1,0 m 23,0 c 0.333333,0 0.666667,0 1,0 m 1,0 c 0.333333,0 0.666667,0 1,0 m 6,0 c 0.333333,0 0.666667,0 1,0 m 1,0 c 0.333333,0 0.666667,0 1,0 M 0,17 c 0.33333333,0 0.66666667,0 1,0 m 1,0 c 0.3333333,0 0.6666667,0 1,0 m 23,0 c 0.333333,0 0.666667,0 1,0 m 2,0 c 0.333333,0 0.666667,0 1,0 m 4,0 c 0.333333,0 0.666667,0 1,0 m 2,0 c 0.333333,0 0.666667,0 1,0 M 0,18 c 0.33333333,0 0.66666667,0 1,0 m 1,0 c 0.3333333,0 0.6666667,0 1,0 m 23,0 c 0.333333,0 0.666667,0 1,0 m 2,0 c 0.666667,0 1.333333,0 2,0 m 2,0 c 0.666667,0 1.333333,0 2,0 m 2,0 c 0.333333,0 0.666667,0 1,0 M 0,19 c 0.33333333,0 0.66666667,0 1,0 m 1,0 c 0.3333333,0 0.6666667,0 1,0 m 23,0 c 0.333333,0 0.666667,0 1,0 m 4,0 c 0.666667,0 1.333333,0 2,0 m 4,0 c 0.333333,0 0.666667,0 1,0 M 0,20 c 0.33333333,0 0.66666667,0 1,0 m 1,0 c 0.3333333,0 0.6666667,0 1,0 m 34,0 c 0.333333,0 0.666667,0 1,0 M 0,21 c 0.33333333,0 0.66666667,0 1,0 m 1,0 c 0.3333333,0 0.6666667,0 1,0 m 23,0 c 0.333333,0 0.666667,0 1,0 m 10,0 c 0.333333,0 0.666667,0 1,0 M 0,22 c 0.33333333,0 0.66666667,0 1,0 m 1,0 c 0.3333333,0 0.6666667,0 1,0 m 28,0 c 0.666667,0 1.333333,0 2,0 m 4,0 c 0.333333,0 0.666667,0 1,0 M 0,23 c 0.33333333,0 0.66666667,0 1,0 m 1,0 c 0.3333333,0 0.6666667,0 1,0 m 23,0 c 0.333333,0 0.666667,0 1,0 m 2,0 c 0.666667,0 1.333333,0 2,0 m 2,0 c 0.666667,0 1.333333,0 2,0 m 2,0 c 0.333333,0 0.666667,0 1,0 M 0,24 c 0.33333333,0 0.66666667,0 1,0 m 1,0 c 0.3333333,0 0.6666667,0 1,0 m 31,0 c 0.333333,0 0.666667,0 1,0 m 2,0 c 0.333333,0 0.666667,0 1,0 M 0,25 c 0.33333333,0 0.66666667,0 1,0 m 1,0 c 0.3333333,0 0.6666667,0 1,0 m 23,0 c 0.333333,0 0.666667,0 1,0 m 8,0 c 0.333333,0 0.666667,0 1,0 M 0,26 c 0.33333333,0 0.66666667,0 1,0 m 1,0 c 0.3333333,0 0.6666667,0 1,0 m 1,0 c 3,0 6,0 9,0 m 1,0 c 1,0 2,0 3,0 m 1,0 c 2.333333,0 4.666667,0 7,0 m 1,0 c 0.333333,0 0.666667,0 1,0 m 1,0 c 0.333333,0 0.666667,0 1,0 m 6,0 c 0.333333,0 0.666667,0 1,0 m 1,0 c 0.333333,0 0.666667,0 1,0 M 0,27 c 0.33333333,0 0.66666667,0 1,0 m 1,0 c 0.6666667,0 1.3333333,0 2,0 m 21,0 c 0.666667,0 1.333333,0 2,0 m 2,0 c 0.333333,0 0.666667,0 1,0 m 4,0 c 0.333333,0 0.666667,0 1,0 m 2,0 c 0.333333,0 0.666667,0 1,0 M 0,28 c 0.33333333,0 0.66666667,0 1,0 m 1,0 c 0.3333333,0 0.6666667,0 1,0 m 23,0 c 0.333333,0 0.666667,0 1,0 m 2,0 c 0.666667,0 1.333333,0 2,0 m 2,0 c 0.666667,0 1.333333,0 2,0 m 2,0 c 0.333333,0 0.666667,0 1,0 M 0,29 c 0.33333333,0 0.66666667,0 1,0 m 1,0 c 0.3333333,0 0.6666667,0 1,0 m 23,0 c 0.333333,0 0.666667,0 1,0 m 4,0 c 0.666667,0 1.333333,0 2,0 m 4,0 c 0.333333,0 0.666667,0 1,0 M 0,30 c 0.33333333,0 0.66666667,0 1,0 m 2,0 c 0.3333333,0 0.6666667,0 1,0 m 21,0 c 0.333333,0 0.666667,0 1,0 M 0,31 c 0.33333333,0 0.66666667,0 1,0 m 3,0 c 7,0 14,0 21,0 m 12,0 c 0.333333,0 0.666667,0 1,0 M 0,32 c 0.33333333,0 0.66666667,0 1,0 m 36,0 c 0.333333,0 0.666667,0 1,0 M 0,33 c 6.6666667,0 13.333333,0 20,0 m 3,0 c 1,0 2,0 3,0 m 1,0 c 3.666667,0 7.333333,0 11,0 M 0,34 c 0.33333333,0 0.66666667,0 1,0 m 36,0 c 0.333333,0 0.666667,0 1,0 M 0,35 c 0.33333333,0 0.66666667,0 1,0 m 36,0 c 0.333333,0 0.666667,0 1,0 M 0,36 c 0.33333333,0 0.66666667,0 1,0 m 36,0 c 0.333333,0 0.666667,0 1,0 M 0,37 c 0.33333333,0 0.66666667,0 1,0 m 36,0 c 0.333333,0 0.666667,0 1,0 M 0,38 c 0.33333333,0 0.66666667,0 1,0 m 36,0 c 0.333333,0 0.666667,0 1,0 M 0,39 c 0.33333333,0 0.66666667,0 1,0 m 36,0 c 0.333333,0 0.666667,0 1,0 M 0,40 c 0.33333333,0 0.66666667,0 1,0 m 36,1 c 0.333333,0 0.666667,0 1,0 M 0,42 c 0.33333333,0 0.66666667,0 1,0 m 36,0 c 0.333333,0 0.666667,0 1,0 M 0,43 c 0.33333333,0 0.66666667,0 1,0 m 36,0 c 0.333333,0 0.666667,0 1,0 M 1,44 c 0.3333333,0 0.6666667,0 1,0 m 34,0 c 0.666667,0 1.333333,0 2,0 M 0,45 c 0.66666667,0 1.3333333,0 2,0 m 35,0 c 0.333333,0 0.666667,0 1,0 M 1,46 c 1,0 2,0 3,0 m 30,0 c 1,0 2,0 3,0 M 2,47 c 3,0 6,0 9,0 m 1,0 c 6.666667,0 13.333333,0 20,0 m 1,0 c 1,0 2,0 3,0" />
      <path
         id="path10"
         style="display:inline;stroke:#192af7;stroke-opacity:1"
         d="m 23,1 c 0.333333,0 0.666667,0 1,0 m 5,0 c 0.333333,0 0.666667,0 1,0 m 2,0 c 0.333333,0 0.666667,0 1,0 M 3,2 c 0.3333333,0 0.6666667,0 1,0 m 27,4 c 1,0 2,0 3,0 m 2,3 c 0.333333,0 0.666667,0 1,0 m -10,2 c 0.333333,0 0.666667,0 1,0 m 4,0 c 0.333333,0 0.666667,0 1,0 m -1,2 c 0.333333,0 0.666667,0 1,0 m 3,1 c 0.333333,0 0.666667,0 1,0 m -3,2 c 0.333333,0 0.666667,0 1,0 m -4,2 c 0.333333,0 0.666667,0 1,0 m -4,2 c 0.333333,0 0.666667,0 1,0 m 6,1 c 0.333333,0 0.666667,0 1,0 m -1,3 c 0.333333,0 0.666667,0 1,0 m -8,5 c 0.333333,0 0.666667,0 1,0 m 5,0 c 0.333333,0 0.666667,0 1,0 M 5,32 c 0.3333333,0 0.6666667,0 1,0 m 3,0 c 0.3333333,0 0.6666667,0 1,0 m 20,0 c 0.666667,0 1.333333,0 2,0 M 4,1 c 6.333333,0 12.666667,0 19,0 m 1,0 c 1.666667,0 3.333333,0 5,0 m 1,0 c 0.666667,0 1.333333,0 2,0 m 1,0 c 0.333333,0 0.666667,0 1,0 M 2,2 c 0.3333333,0 0.6666667,0 1,0 m 1,0 c 0.3333333,0 0.6666667,0 1,0 m 19,0 c 2.333333,0 4.666667,0 7,0 m 2,0 c 1,0 2,0 3,0 M 2,3 c 0.3333333,0 0.6666667,0 1,0 m 23,0 c 1,0 2,0 3,0 m 2,0 c 0.666667,0 1.333333,0 2,0 m 2,0 c 0.333333,0 0.666667,0 1,0 M 1,4 c 0.6666667,0 1.3333333,0 2,0 m 23,0 c 1,0 2,0 3,0 m 1,0 c 1.333333,0 2.666667,0 4,0 m 1,0 c 0.666667,0 1.333333,0 2,0 M 1,5 c 0.3333333,0 0.6666667,0 1,0 m 25,0 c 0.333333,0 0.666667,0 1,0 m 1,0 c 2,0 4,0 6,0 m 1,0 c 0.333333,0 0.666667,0 1,0 M 1,6 c 0.3333333,0 0.6666667,0 1,0 m 25,0 c 0.333333,0 0.666667,0 1,0 m 1,0 c 0.666667,0 1.333333,0 2,0 m 3,0 c 0.333333,0 0.666667,0 1,0 m 1,0 c 0.333333,0 0.666667,0 1,0 M 1,7 c 0.3333333,0 0.6666667,0 1,0 m 25,0 c 0.666667,0 1.333333,0 2,0 m 1,0 c 1.333333,0 2.666667,0 4,0 m 1,0 c 0.666667,0 1.333333,0 2,0 M 1,8 c 0.3333333,0 0.6666667,0 1,0 m 25,0 c 0.666667,0 1.333333,0 2,0 m 2,0 c 0.666667,0 1.333333,0 2,0 m 2,0 c 0.666667,0 1.333333,0 2,0 M 1,9 c 0.3333333,0 0.6666667,0 1,0 m 25,0 c 1.333333,0 2.666667,0 4,0 m 2,0 c 1,0 2,0 3,0 M 1,10 c 0.3333333,0 0.6666667,0 1,0 m 25,0 c 3.333333,0 6.666667,0 10,0 M 1,11 c 0.3333333,0 0.6666667,0 1,0 m 26,0 c 1.333333,0 2.666667,0 4,0 m 1,0 c 1.333333,0 2.666667,0 4,0 M 1,12 c 0.3333333,0 0.6666667,0 1,0 m 25,0 c 1.333333,0 2.666667,0 4,0 m 2,0 c 1.333333,0 2.666667,0 4,0 M 1,13 c 0.3333333,0 0.6666667,0 1,0 m 25,0 c 0.666667,0 1.333333,0 2,0 m 2,0 c 0.333333,0 0.666667,0 1,0 m 3,0 c 0.666667,0 1.333333,0 2,0 M 1,14 c 0.3333333,0 0.6666667,0 1,0 m 25,0 c 0.666667,0 1.333333,0 2,0 m 1,0 c 1.333333,0 2.666667,0 4,0 m 1,0 c 0.333333,0 0.666667,0 1,0 M 1,15 c 0.3333333,0 0.6666667,0 1,0 m 25,0 c 0.333333,0 0.666667,0 1,0 m 1,0 c 2,0 4,0 6,0 m 1,0 c 0.333333,0 0.666667,0 1,0 M 1,16 c 0.3333333,0 0.6666667,0 1,0 m 25,0 c 0.333333,0 0.666667,0 1,0 m 1,0 c 1.666667,0 3.333333,0 5,0 m 2,0 c 0.333333,0 0.666667,0 1,0 M 1,17 c 0.3333333,0 0.6666667,0 1,0 m 25,0 c 0.666667,0 1.333333,0 2,0 m 1,0 c 1.333333,0 2.666667,0 4,0 m 1,0 c 0.666667,0 1.333333,0 2,0 M 1,18 c 0.3333333,0 0.6666667,0 1,0 m 25,0 c 0.666667,0 1.333333,0 2,0 m 3,0 c 0.333333,0 0.666667,0 1,0 m 2,0 c 0.666667,0 1.333333,0 2,0 M 1,19 c 0.3333333,0 0.6666667,0 1,0 m 25,0 c 1.333333,0 2.666667,0 4,0 m 2,0 c 1.333333,0 2.666667,0 4,0 M 1,20 c 0.3333333,0 0.6666667,0 1,0 m 25,0 c 0.333333,0 0.666667,0 1,0 m 1,0 c 2.666667,0 5.333333,0 8,0 M 1,21 c 0.3333333,0 0.6666667,0 1,0 m 25,0 c 2.666667,0 5.333333,0 8,0 m 1,0 c 0.333333,0 0.666667,0 1,0 M 1,22 c 0.3333333,0 0.6666667,0 1,0 m 25,0 c 1.333333,0 2.666667,0 4,0 m 2,0 c 1.333333,0 2.666667,0 4,0 M 1,23 c 0.3333333,0 0.6666667,0 1,0 m 25,0 c 0.666667,0 1.333333,0 2,0 m 2,0 c 0.666667,0 1.333333,0 2,0 m 2,0 c 0.666667,0 1.333333,0 2,0 M 1,24 c 0.3333333,0 0.6666667,0 1,0 m 25,0 c 0.666667,0 1.333333,0 2,0 m 1,0 c 1.333333,0 2.666667,0 4,0 m 2,0 c 0.333333,0 0.666667,0 1,0 M 1,25 c 0.3333333,0 0.6666667,0 1,0 m 25,0 c 0.333333,0 0.666667,0 1,0 m 1,0 c 2,0 4,0 6,0 m 1,0 c 0.333333,0 0.666667,0 1,0 M 1,26 c 0.3333333,0 0.6666667,0 1,0 m 25,0 c 0.333333,0 0.666667,0 1,0 m 1,0 c 2,0 4,0 6,0 m 1,0 c 0.333333,0 0.666667,0 1,0 M 1,27 c 0.3333333,0 0.6666667,0 1,0 m 25,0 c 0.666667,0 1.333333,0 2,0 m 1,0 c 1.333333,0 2.666667,0 4,0 m 1,0 c 0.666667,0 1.333333,0 2,0 M 1,28 c 0.3333333,0 0.6666667,0 1,0 m 25,0 c 0.666667,0 1.333333,0 2,0 m 2,0 c 0.666667,0 1.333333,0 2,0 m 2,0 c 0.666667,0 1.333333,0 2,0 M 1,29 c 0.3333333,0 0.6666667,0 1,0 m 25,0 c 0.333333,0 0.666667,0 1,0 m 1,0 c 0.666667,0 1.333333,0 2,0 m 2,0 c 0.333333,0 0.666667,0 1,0 m 1,0 c 0.666667,0 1.333333,0 2,0 M 1,30 c 0.6666667,0 1.3333333,0 2,0 m 23,0 c 3.666667,0 7.333333,0 11,0 M 1,31 c 1,0 2,0 3,0 m 21,0 c 4,0 8,0 12,0 M 1,32 c 1.3333333,0 2.6666667,0 4,0 m 1,0 c 1,0 2,0 3,0 m 1,0 c 6.666667,0 13.333333,0 20,0 m 2,0 c 1.666667,0 3.333333,0 5,0" />
      <path
         id="path14"
         style="stroke:#5c7fae;stroke-opacity:1"
         d="m 5,27 c 0.3333333,0 0.6666667,0 1,0 m 3,1 c 0.3333333,0 0.6666667,0 1,0 m -2,1 c 0.3333333,0 0.6666667,0 1,0 m -6,6 c 0.3333333,0 0.6666667,0 1,0 m 23,0 c 0.333333,0 0.666667,0 1,0 M 1,37 c 0.3333333,0 0.6666667,0 1,0 m 2,0 c 0.3333333,0 0.6666667,0 1,0 m 1,0 c 0.3333333,0 0.6666667,0 1,0 m 1,0 c 0.3333333,0 0.6666667,0 1,0 m 4,0 c 0.333333,0 0.666667,0 1,0 m 7,0 c 0.333333,0 0.666667,0 1,0 m 2,0 c 0.333333,0 0.666667,0 1,0 m -15,1 c 0.333333,0 0.666667,0 1,0 m 7,0 c 0.333333,0 0.666667,0 1,0 m 6,0 c 0.333333,0 0.666667,0 1,0 m 7,0 c 0.333333,0 0.666667,0 1,0 m -10,1 c 0.333333,0 0.666667,0 1,0 M 4,40 c 0.3333333,0 0.6666667,0 1,0 m 28,0 c 0.666667,0 1.333333,0 2,0 m -19,1 c 0.333333,0 0.666667,0 1,0 m 18,0 c 0.333333,0 0.666667,0 1,0 m -17,1 c 0.333333,0 0.666667,0 1,0 m 3,0 c 0.333333,0 0.666667,0 1,0 M 9,43 c 0.3333333,0 0.6666667,0 1,0 m 9,0 c 0.666667,0 1.333333,0 2,0 m 12,0 c 0.333333,0 0.666667,0 1,0 M 6,44 c 0.3333333,0 0.6666667,0 1,0 m 20,0 c 0.333333,0 0.666667,0 1,0 m 3,0 c 0.666667,0 1.333333,0 2,0 M 8,45 c 0.6666667,0 1.3333333,0 2,0 M 4,27 c 0.3333333,0 0.6666667,0 1,0 m 1,0 c 6.333333,0 12.666667,0 19,0 M 3,28 c 2,0 4,0 6,0 m 1,0 c 5.333333,0 10.666667,0 16,0 M 3,29 c 1.6666667,0 3.3333333,0 5,0 m 1,0 c 5.666667,0 11.333333,0 17,0 M 4,30 c 7,0 14,0 21,0 M 1,34 c 12,0 24,0 36,0 M 1,35 c 0.6666667,0 1.3333333,0 2,0 m 1,0 c 7.666667,0 15.333333,0 23,0 m 1,0 c 3,0 6,0 9,0 M 1,36 c 12,0 24,0 36,0 M 2,37 c 0.6666667,0 1.3333333,0 2,0 m 1,0 c 0.3333333,0 0.6666667,0 1,0 m 1,0 c 0.3333333,0 0.6666667,0 1,0 m 1,0 c 1.333333,0 2.666667,0 4,0 m 1,0 c 2.333333,0 4.666667,0 7,0 m 1,0 c 0.666667,0 1.333333,0 2,0 m 1,0 c 4,0 8,0 12,0 M 1,38 c 3,0 6,0 9,0 m 1,0 c 2.333333,0 4.666667,0 7,0 m 1,0 c 2,0 4,0 6,0 m 1,0 c 2.333333,0 4.666667,0 7,0 m 1,0 c 1,0 2,0 3,0 M 1,39 c 7.6666667,0 15.333333,0 23,0 m 1,0 c 4,0 8,0 12,0 M 1,40 c 1,0 2,0 3,0 m 1,0 c 9.333333,0 18.666667,0 28,0 m 2,0 c 0.666667,0 1.333333,0 2,0 M 1,41 c 5,0 10,0 15,0 m 1,0 c 6,0 12,0 18,0 m 1,0 c 0.333333,0 0.666667,0 1,0 M 1,42 c 6,0 12,0 18,0 m 1,0 c 1,0 2,0 3,0 m 1,0 c 4.333333,0 8.666667,0 13,0 M 1,43 c 2.6666667,0 5.3333333,0 8,0 m 1,0 c 3,0 6,0 9,0 m 2,0 c 4,0 8,0 12,0 m 1,0 c 1,0 2,0 3,0 M 2,44 c 1.3333333,0 2.6666667,0 4,0 m 1,0 c 6.666667,0 13.333333,0 20,0 m 1,0 c 1,0 2,0 3,0 m 2,0 c 1,0 2,0 3,0 M 2,45 c 2,0 4,0 6,0 m 2,0 c 8.666667,0 17.333333,0 26,0 M 4,46 c 10,0 20,0 30,0" />
    </g>
    <text
       xml:space="preserve"
       id="text843"
       style="font-style:normal;font-variant:normal;font-weight:bold;font-stretch:normal;font-size:17.3333px;line-height:0;font-family:'Segoe UI';-inkscape-font-specification:'Segoe UI, Bold';font-variant-ligatures:normal;font-variant-position:sub;font-variant-caps:normal;font-variant-numeric:normal;font-variant-east-asian:normal;text-align:center;letter-spacing:0px;word-spacing:0px;writing-mode:lr-tb;white-space:pre;shape-inside:url(#rect845);fill:#000000;fill-opacity:1;stroke:none"
       transform="matrix(1.6231395,0,0,2.1038725,-153.70377,-32.701649)"><tspan
         x="235.78973"
         y="38.904734"><tspan
           style="font-style:normal;font-variant:normal;font-weight:bold;font-stretch:normal;font-size:17.3333px;font-family:'Segoe UI';-inkscape-font-specification:'Segoe UI, Bold';font-variant-ligatures:normal;font-variant-position:sub;font-variant-caps:normal;font-variant-numeric:normal;font-variant-east-asian:normal">122</tspan></tspan></text>
    <text
       transform="matrix(1.6231395,0,0,2.0918686,-153.53851,44.658363)"
       style="font-style:normal;font-variant:normal;font-weight:bold;font-stretch:normal;font-size:17.3333px;line-height:0;font-family:'Segoe UI';-inkscape-font-specification:'Segoe UI, Bold';font-variant-ligatures:normal;font-variant-position:sub;font-variant-caps:normal;font-variant-numeric:normal;font-variant-east-asian:normal;text-align:center;letter-spacing:0px;word-spacing:0px;writing-mode:lr-tb;white-space:pre;shape-inside:url(#rect845-5);fill:#000000;fill-opacity:1;stroke:none;"
       id="text843-4"
       xml:space="preserve"><tspan
         x="235.78973"
         y="38.904734"><tspan
           style="font-style:normal;font-variant:normal;font-weight:bold;font-stretch:normal;font-size:17.3333px;font-family:'Segoe UI';-inkscape-font-specification:'Segoe UI, Bold';font-variant-ligatures:normal;font-variant-position:sub;font-variant-caps:normal;font-variant-numeric:normal;font-variant-east-asian:normal">122</tspan></tspan></text>
    <text
       transform="matrix(1.6231395,0,0,2.0798646,-153.6269,122.04782)"
       style="font-style:normal;font-variant:normal;font-weight:bold;font-stretch:normal;font-size:17.3333px;line-height:0;font-family:'Segoe UI';-inkscape-font-specification:'Segoe UI, Bold';font-variant-ligatures:normal;font-variant-position:sub;font-variant-caps:normal;font-variant-numeric:normal;font-variant-east-asian:normal;text-align:center;letter-spacing:0px;word-spacing:0px;writing-mode:lr-tb;white-space:pre;shape-inside:url(#rect845-0);fill:#000000;fill-opacity:1;stroke:none;"
       id="text843-3"
       xml:space="preserve"><tspan
         x="235.78973"
         y="38.904734"><tspan
           style="font-style:normal;font-variant:normal;font-weight:bold;font-stretch:normal;font-size:17.3333px;font-family:'Segoe UI';-inkscape-font-specification:'Segoe UI, Bold';font-variant-ligatures:normal;font-variant-position:sub;font-variant-caps:normal;font-variant-numeric:normal;font-variant-east-asian:normal">122</tspan></tspan></text>
    <text
       style="font-style:normal;font-variant:normal;font-weight:normal;font-stretch:normal;font-size:12px;line-height:1.25;font-family:sans-serif;-inkscape-font-specification:'sans-serif, Normal';font-variant-ligatures:normal;font-variant-caps:normal;font-variant-numeric:normal;font-feature-settings:normal;text-align:center;letter-spacing:0px;word-spacing:0px;writing-mode:lr-tb;white-space:pre;shape-inside:url(#rect920);fill:#000000;fill-opacity:1;stroke:none"
       id="text918"
       xml:space="preserve"><tspan
         x="66.935008"
         y="226.51003"><tspan
           style="font-style:normal;font-variant:normal;font-weight:normal;font-stretch:normal;font-size:13.3333px;font-family:'Segoe UI';-inkscape-font-specification:'Segoe UI, Normal';font-variant-ligatures:normal;font-variant-caps:normal;font-variant-numeric:normal;font-variant-east-asian:normal">Nazwa awatara</tspan></tspan></text>
    <text
       transform="translate(-0.5,7)"
       style="font-style:normal;font-variant:normal;font-weight:normal;font-stretch:normal;font-size:12px;line-height:1.25;font-family:sans-serif;-inkscape-font-specification:'sans-serif, Normal';font-variant-ligatures:normal;font-variant-caps:normal;font-variant-numeric:normal;font-variant-east-asian:normal;text-align:center;letter-spacing:0px;word-spacing:0px;writing-mode:lr-tb;white-space:pre;shape-inside:url(#rect926);fill:#000000;fill-opacity:1;stroke:none"
       id="text924"
       xml:space="preserve"><tspan
         x="27.316406"
         y="275.11719"><tspan>To jest przykładowy dość długi opis aby </tspan></tspan><tspan
         x="33.292969"
         y="290.11719"><tspan>wypełnic obszar i sprawdzić działanie </tspan></tspan><tspan
         x="71.917969"
         y="305.11719"><tspan>textboxa w formacie svg </tspan></tspan><tspan
         x="15.855469"
         y="320.11719"><tspan>4444444444444444444444444444444444</tspan></tspan><tspan
         x="19.675781"
         y="335.11719"><tspan>4444 4444444444 4 4 4 4 4 44 4  444 4 4 </tspan></tspan><tspan
         style="visibility:hidden"
         x="14.5"
         y="352.51172"><tspan>4</tspan></tspan></text>
  </g>
</svg>
